<svg version="1.1" id="Layer_1" xmlns="http://www.w3.org/2000/svg" xmlns:xlink="http://www.w3.org/1999/xlink" x="0px" y="0px"
	 width="100%" viewBox="0 0 1172 1172" enable-background="new 0 0 1172 1172" xml:space="preserve">
<path fill="#FFFFFF" opacity="0.000000" stroke="none" 
	d="
M1.000000,417.000000 
	C1.000000,278.000000 1.000000,139.500000 1.000000,1.000000 
	C391.666656,1.000000 782.333313,1.000000 1173.000000,1.000000 
	C1173.000000,391.666656 1173.000000,782.333313 1173.000000,1173.000000 
	C782.333313,1173.000000 391.666656,1173.000000 1.000000,1173.000000 
	C1.000000,921.166687 1.000000,669.333313 1.000000,417.000000 
M888.369690,852.736633 
	C897.755005,852.128845 904.939270,847.496033 909.673401,839.707886 
	C914.583313,831.630554 919.245544,823.302979 923.014282,814.648499 
	C941.660217,771.829651 954.105042,726.918518 966.932556,682.159058 
	C985.400391,617.718445 1004.283997,553.435303 1029.893066,491.341583 
	C1041.252441,463.798340 1054.310425,437.326569 1074.228394,414.816132 
	C1082.615845,405.337128 1091.738770,396.485443 1099.798950,386.745850 
	C1112.498657,371.400330 1116.994995,354.029938 1108.836182,335.064362 
	C1103.257690,322.097076 1096.694946,309.550629 1090.476807,296.862823 
	C1088.668213,293.172363 1085.576416,290.621216 1081.394531,290.853912 
	C1072.640137,291.340851 1063.745239,291.493347 1055.205200,293.237793 
	C1027.856079,298.824341 1004.950745,311.966461 987.640076,334.392548 
	C971.570679,355.210602 960.333252,378.468170 951.951599,403.196869 
	C931.242188,464.296631 910.668945,525.442566 890.066040,586.578430 
	C880.742004,614.245789 864.676941,637.340027 842.788147,656.497559 
	C842.016418,657.172913 841.017578,657.588745 839.608948,658.435486 
	C839.371704,656.009460 839.176270,654.220337 839.024597,652.427490 
	C837.592468,635.499329 836.101379,618.575745 834.755005,601.640808 
	C832.063049,567.779846 829.282166,533.924622 826.873535,500.043182 
	C825.536926,481.241913 824.601013,462.338196 817.524780,444.647400 
	C809.068298,423.505737 800.712708,402.239105 790.680786,381.829041 
	C766.220154,332.063995 703.693176,322.973145 667.097107,364.076782 
	C631.352295,404.224457 599.040588,447.060974 574.563293,495.189178 
	C549.451416,544.565063 525.040283,594.297363 500.315063,643.869995 
	C499.542084,645.419800 498.686981,646.928589 497.611664,648.940186 
	C484.826355,612.052002 472.455750,575.973572 464.673553,538.327148 
	C453.732391,485.399048 441.734772,432.659851 428.794464,380.183716 
	C418.151031,337.021942 391.001648,308.050262 348.084473,294.706207 
	C346.363922,294.171265 343.641235,293.792938 342.571136,294.716064 
	C333.777832,302.301788 324.740723,309.724213 316.847839,318.193573 
	C311.343842,324.099579 309.586975,332.364014 311.686096,340.288757 
	C316.233673,357.456757 321.322601,374.488617 326.516479,391.476410 
	C333.997833,415.946014 342.936401,440.037201 349.089233,464.826965 
	C355.249969,489.648651 358.220703,515.242554 363.517609,540.301819 
	C380.210175,619.273560 401.442993,697.087341 424.307281,774.465698 
	C430.196503,794.396118 435.710571,814.486206 446.275818,832.669128 
	C455.266876,848.142883 467.013611,860.327148 484.773956,865.521790 
	C500.539642,870.133057 516.397217,868.688538 532.335632,866.647522 
	C536.571960,866.105042 538.698364,864.087158 540.247620,860.421265 
	C547.109009,844.185547 554.386658,828.121155 561.017090,811.793091 
	C581.091614,762.357788 598.193237,711.705078 623.953430,664.637878 
	C637.840454,639.264465 649.693420,612.785889 662.889771,587.023987 
	C676.018250,561.394470 689.232666,535.768066 707.127136,512.968628 
	C710.429077,508.761597 713.878784,504.670532 718.075073,499.527374 
	C719.794922,519.239502 721.550232,537.469421 722.935059,555.727356 
	C724.534973,576.820190 725.332275,597.982727 727.323120,619.035095 
	C731.434387,662.509888 743.335938,703.879395 761.866577,743.437927 
	C784.387878,791.515564 818.226257,827.904114 868.326233,847.643311 
	C874.446228,850.054565 881.112915,851.078003 888.369690,852.736633 
M117.766800,269.500031 
	C117.766800,234.410156 117.766800,199.320297 117.766800,164.132416 
	C395.162354,164.132416 671.889160,164.132416 949.256531,164.132416 
	C949.256531,198.754120 949.256531,233.114670 949.256531,267.453735 
	C966.832092,267.453735 983.765442,267.453735 1000.922546,267.453735 
	C1000.922546,215.594940 1000.922546,164.025040 1000.922546,112.226715 
	C689.103943,112.226715 377.539001,112.226715 65.719543,112.226715 
	C65.719543,423.818909 65.719543,735.214478 65.719543,1046.760254 
	C377.563110,1046.760254 689.131042,1046.760254 1000.919983,1046.760254 
	C1000.919983,994.950012 1000.919983,943.380859 1000.919983,891.568726 
	C983.602539,891.568726 966.542053,891.568726 949.035706,891.568726 
	C949.035706,926.128784 949.035706,960.381287 949.035706,994.768127 
	C671.738159,994.768127 394.887390,994.768127 117.766693,994.768127 
	C117.766693,753.101379 117.766693,511.800720 117.766800,269.500031 
z"/>
<path fill="#FF8D01" opacity="1.000000" stroke="none" 
	d="
M887.947998,852.740601 
	C881.112915,851.078003 874.446228,850.054565 868.326233,847.643311 
	C818.226257,827.904114 784.387878,791.515564 761.866577,743.437927 
	C743.335938,703.879395 731.434387,662.509888 727.323120,619.035095 
	C725.332275,597.982727 724.534973,576.820190 722.935059,555.727356 
	C721.550232,537.469421 719.794922,519.239502 718.075073,499.527374 
	C713.878784,504.670532 710.429077,508.761597 707.127136,512.968628 
	C689.232666,535.768066 676.018250,561.394470 662.889771,587.023987 
	C649.693420,612.785889 637.840454,639.264465 623.953430,664.637878 
	C598.193237,711.705078 581.091614,762.357788 561.017090,811.793091 
	C554.386658,828.121155 547.109009,844.185547 540.247620,860.421265 
	C538.698364,864.087158 536.571960,866.105042 532.335632,866.647522 
	C516.397217,868.688538 500.539642,870.133057 484.773956,865.521790 
	C467.013611,860.327148 455.266876,848.142883 446.275818,832.669128 
	C435.710571,814.486206 430.196503,794.396118 424.307281,774.465698 
	C401.442993,697.087341 380.210175,619.273560 363.517609,540.301819 
	C358.220703,515.242554 355.249969,489.648651 349.089233,464.826965 
	C342.936401,440.037201 333.997833,415.946014 326.516479,391.476410 
	C321.322601,374.488617 316.233673,357.456757 311.686096,340.288757 
	C309.586975,332.364014 311.343842,324.099579 316.847839,318.193573 
	C324.740723,309.724213 333.777832,302.301788 342.571136,294.716064 
	C343.641235,293.792938 346.363922,294.171265 348.084473,294.706207 
	C391.001648,308.050262 418.151031,337.021942 428.794464,380.183716 
	C441.734772,432.659851 453.732391,485.399048 464.673553,538.327148 
	C472.455750,575.973572 484.826355,612.052002 497.611664,648.940186 
	C498.686981,646.928589 499.542084,645.419800 500.315063,643.869995 
	C525.040283,594.297363 549.451416,544.565063 574.563293,495.189178 
	C599.040588,447.060974 631.352295,404.224457 667.097107,364.076782 
	C703.693176,322.973145 766.220154,332.063995 790.680786,381.829041 
	C800.712708,402.239105 809.068298,423.505737 817.524780,444.647400 
	C824.601013,462.338196 825.536926,481.241913 826.873535,500.043182 
	C829.282166,533.924622 832.063049,567.779846 834.755005,601.640808 
	C836.101379,618.575745 837.592468,635.499329 839.024597,652.427490 
	C839.176270,654.220337 839.371704,656.009460 839.608948,658.435486 
	C841.017578,657.588745 842.016418,657.172913 842.788147,656.497559 
	C864.676941,637.340027 880.742004,614.245789 890.066040,586.578430 
	C910.668945,525.442566 931.242188,464.296631 951.951599,403.196869 
	C960.333252,378.468170 971.570679,355.210602 987.640076,334.392548 
	C1004.950745,311.966461 1027.856079,298.824341 1055.205200,293.237793 
	C1063.745239,291.493347 1072.640137,291.340851 1081.394531,290.853912 
	C1085.576416,290.621216 1088.668213,293.172363 1090.476807,296.862823 
	C1096.694946,309.550629 1103.257690,322.097076 1108.836182,335.064362 
	C1116.994995,354.029938 1112.498657,371.400330 1099.798950,386.745850 
	C1091.738770,396.485443 1082.615845,405.337128 1074.228394,414.816132 
	C1054.310425,437.326569 1041.252441,463.798340 1029.893066,491.341583 
	C1004.283997,553.435303 985.400391,617.718445 966.932556,682.159058 
	C954.105042,726.918518 941.660217,771.829651 923.014282,814.648499 
	C919.245544,823.302979 914.583313,831.630554 909.673401,839.707886 
	C904.939270,847.496033 897.755005,852.128845 887.947998,852.740601 
z"/>
<path fill="#FF8E01" opacity="1.000000" stroke="none" 
	d="
M117.766747,270.000061 
	C117.766693,511.800720 117.766693,753.101379 117.766693,994.768127 
	C394.887390,994.768127 671.738159,994.768127 949.035706,994.768127 
	C949.035706,960.381287 949.035706,926.128784 949.035706,891.568726 
	C966.542053,891.568726 983.602539,891.568726 1000.919983,891.568726 
	C1000.919983,943.380859 1000.919983,994.950012 1000.919983,1046.760254 
	C689.131042,1046.760254 377.563110,1046.760254 65.719543,1046.760254 
	C65.719543,735.214478 65.719543,423.818909 65.719543,112.226715 
	C377.539001,112.226715 689.103943,112.226715 1000.922546,112.226715 
	C1000.922546,164.025040 1000.922546,215.594940 1000.922546,267.453735 
	C983.765442,267.453735 966.832092,267.453735 949.256531,267.453735 
	C949.256531,233.114670 949.256531,198.754120 949.256531,164.132416 
	C671.889160,164.132416 395.162354,164.132416 117.766800,164.132416 
	C117.766800,199.320297 117.766800,234.410156 117.766747,270.000061 
z"/>
</svg>